<?xml version="1.0" encoding="UTF-8"?>
<svg id="Layer_1" data-name="Layer 1" xmlns="http://www.w3.org/2000/svg" viewBox="0 0 608.9 170.75">
  <defs>
    <style>
      .cls-1 {
        fill: #fff;
      }

      .cls-1, .cls-2 {
        stroke-width: 0px;
      }

      .cls-2 {
        fill: #ed0f68;
      }
    </style>
  </defs>
  <g>
    <path class="cls-1" d="m292.09,107.62c0,2.62-.23,5.34-.8,8.42l-5.92,33.67h-15.58l5.69-32.3c.34-2.16.57-4.09.57-5.69,0-6.14-3.3-8.19-8.42-8.19-5.69,0-9.56,4.1-11.15,13.54l-5.69,32.64h-15.81l5.69-32.3c.34-2.16.57-3.98.57-5.57,0-6.26-3.3-8.3-8.42-8.3-5.69,0-9.56,4.1-11.15,13.54l-5.69,32.64h-15.7l10.46-59.72h15.7l-.68,3.98c2.84-2.62,7.05-5.23,12.85-5.23,7.62,0,12.51,2.5,16.04,7.62,3.41-2.84,9.67-7.62,19.11-7.62,12.17,0,18.31,6.71,18.31,18.88Z"/>
    <path class="cls-1" d="m298.23,125.26c0-19.57,12.85-36.51,31.28-36.51,13.99,0,23.43,9.9,23.43,25.71,0,19.57-12.85,36.51-31.28,36.51-13.99,0-23.43-9.9-23.43-25.71Zm16.15-1.02c0,7.39,3.87,11.6,8.99,11.6,7.05,0,13.42-7.51,13.42-20.36,0-7.39-3.87-11.6-8.99-11.6-7.05,0-13.42,7.51-13.42,20.36Z"/>
    <path class="cls-1" d="m412.88,111.6c0,20.36-9.9,39.36-27.75,39.36-6.03,0-9.33-1.82-13.19-4.89l-.68,3.64h-15.47l13.19-75.07,17.06-7.85-4.66,26.96c3.3-2.96,7.05-5,11.83-5,12.63,0,19.68,8.64,19.68,22.86Zm-16.15,2.62c0-7.05-2.96-10.69-8.3-10.69-4.09,0-7.17,2.39-9.67,5.01l-3.98,22.52c2.96,3.41,5.57,5.12,10.01,5.12,7.39,0,11.94-10.01,11.94-21.95Z"/>
    <path class="cls-1" d="m442.68,89.99l-10.47,59.72h-15.7l10.47-59.72h15.7Z"/>
    <path class="cls-1" d="m475.43,66.79l-14.56,82.92h-15.7l13.19-75.07,17.06-7.85Z"/>
    <path class="cls-1" d="m500,89.99l-10.47,59.72h-15.7l10.47-59.72h15.7Z"/>
    <path class="cls-1" d="m516.65,74.64l17.06-7.85-4.1,23.2h13.88l-2.62,14.79h-13.88l-4.21,24c-.23,1.02-.23,1.82-.23,2.62,0,3.53,2.05,4.55,5.46,4.55,3.07,0,5.69-1.36,8.53-3.64l-5.12,15.58c-2.96,2.05-8.42,3.07-11.26,3.07-8.98,0-14.22-5.57-14.22-13.88,0-1.25.11-2.62.34-4.09l10.35-58.35Z"/>
    <path class="cls-1" d="m608.9,89.99l-44.7,80.76h-15.7l11.6-21.04-12.17-59.72h17.06l4.44,28.78c.68,4.66,1.36,10.24,1.59,13.08,1.14-2.96,3.75-8.42,6.14-13.08l14.67-28.78h17.06Z"/>
  </g>
  <g>
    <path class="cls-1" d="m37.37,52.27l-3.94-11.18H15.07l-3.94,11.18H.37L19.59,2.08h9.75l19.07,50.19h-11.04Zm-10.61-29.83c-1-2.94-2-5.95-2.51-7.81-.5,1.86-1.51,4.88-2.51,7.81l-3.23,9.11h11.48l-3.23-9.11Z"/>
    <path class="cls-1" d="m73.09,52.27v-2.51c-1.72,1.79-4.88,3.3-8.82,3.3-9.61,0-13.91-6.6-13.91-17.21V14.63h9.9v20.36c0,6.74,2.29,8.75,6.38,8.75s6.45-2.01,6.45-8.53V14.63h9.9v37.64h-9.9Z"/>
    <path class="cls-1" d="m107.77,50.76c-1.65,1.29-4.59,2.29-7.67,2.29-6.1,0-10.04-4.73-10.04-11.33V4.95l9.9-4.95v14.63h9.03v9.32h-9.03v15.13c0,3.58,1.29,4.52,3.65,4.52,1.79,0,3.16-.79,5.59-2.87l-1.43,10.04Z"/>
    <path class="cls-1" d="m128.42,53.06c-9.83,0-16.99-8.03-16.99-19.58s7.17-19.65,16.99-19.65,17.06,8.1,17.06,19.65-7.24,19.58-17.06,19.58Zm0-29.69c-4.73,0-6.95,4.3-6.95,10.11s2.22,10.04,6.95,10.04,7.02-4.81,7.02-10.04c0-5.74-2.29-10.11-7.02-10.11Z"/>
    <path class="cls-1" d="m182.91,52.27l-18.43-27.39c-1.22-1.86-2.87-4.37-3.51-5.66,0,1.86.14,8.17.14,10.97v22.08h-9.9V2.08h9.61l17.78,26.53c1.22,1.86,2.87,4.37,3.51,5.67,0-1.86-.14-8.17-.14-10.97V2.08h9.9v50.19h-8.96Z"/>
    <path class="cls-1" d="m220.28,52.27v-2.51c-1.79,1.86-4.95,3.3-8.46,3.3-7.02,0-14.05-4.3-14.05-13.41,0-8.32,6.74-12.48,15.27-12.48,3.44,0,5.66.72,7.24,1.51v-1.86c0-2.65-1.79-4.8-5.38-4.8-4.52,0-6.88.65-10.32,2.51l-3.8-6.88c4.38-2.51,8.03-3.8,14.13-3.8,9.1,0,15.27,4.73,15.27,13.2v25.24h-9.89Zm0-15.78c-1.72-1.08-3.37-1.58-6.88-1.58-3.73,0-5.74,1.72-5.74,4.73,0,2.65,1.51,5.02,5.74,5.02,3.23,0,5.81-1.65,6.88-3.44v-4.73Z"/>
    <path class="cls-1" d="m254.6,50.76c-1.65,1.29-4.59,2.29-7.67,2.29-6.1,0-10.04-4.73-10.04-11.33V4.95l9.9-4.95v14.63h9.03v9.32h-9.03v15.13c0,3.58,1.29,4.52,3.65,4.52,1.79,0,3.16-.79,5.59-2.87l-1.43,10.04Z"/>
    <path class="cls-1" d="m262.05,52.27V14.63h9.9v37.64h-9.9Z"/>
    <path class="cls-1" d="m293.39,53.06c-9.83,0-16.99-8.03-16.99-19.58s7.17-19.65,16.99-19.65,17.06,8.1,17.06,19.65-7.24,19.58-17.06,19.58Zm0-29.69c-4.73,0-6.95,4.3-6.95,10.11s2.22,10.04,6.95,10.04,7.02-4.81,7.02-10.04c0-5.74-2.29-10.11-7.02-10.11Z"/>
    <path class="cls-1" d="m337.27,52.27v-20.36c0-6.74-2.29-8.75-6.38-8.75s-6.46,2.01-6.46,8.53v20.58h-9.9V14.63h9.9v2.51c1.72-1.79,4.88-3.3,8.82-3.3,9.61,0,13.91,6.6,13.91,17.21v21.22h-9.9Z"/>
  </g>
  <path class="cls-1" d="m303.94,59.82c-10.52,0-21.05.1-31.57.33-14.73.31-29.47.75-44.2,1.49-14.33.72-28.65,1.5-42.96,2.56-11.19.83-22.38,1.74-33.56,2.68.32-.02.63-.04.95-.05,12.04-.67,24.08-1.28,36.12-1.82,13.82-.62,27.64-.91,41.47-1.2,8.53-.18,17.06-.25,25.6-.25,5.7,0,11.39.03,17.09.07,13.71.1,27.42.41,41.12.9,6.26.22,12.52.5,18.78.83,2.49.13,4.98.27,7.47.43,1.34.09,2.67.17,4.01.26.37.02.87.11,1.35.11.77,0,1.48-.22,1.53-1.26.04-.77.08-1.54.11-2.31,0-.1,0-.19,0-.28,0-.97-.29-1.66-1.33-1.74-1.23-.09-2.46-.1-3.69-.14-2.71-.1-5.41-.19-8.12-.25-6.38-.16-12.77-.27-19.16-.31-3.67-.02-7.35-.04-11.02-.04"/>
  <path class="cls-2" d="m265.72,68.21c-3.19,0-6.39.01-9.58.04-10.91.1-21.82.24-32.72.57-8.53.26-17.05.57-25.58.91.24,0,.48,0,.72-.01,9.17-.13,18.34-.22,27.51-.26,1.26,0,2.51,0,3.77,0,9.26,0,18.52.16,27.78.3,10.82.17,21.64.56,32.45,1.01,10.42.43,20.83,1,31.24,1.69,4.75.31,9.51.67,14.25,1.06,1.89.15,3.78.31,5.67.49,1.01.09,2.03.19,3.04.28.31.03.74.11,1.14.11.54,0,1.03-.15,1.09-.8.05-.51.09-1.03.14-1.54,0-.09.01-.18.01-.27,0-.61-.22-1.04-.97-1.12-.93-.09-1.87-.13-2.8-.19-2.06-.14-4.11-.27-6.17-.39-4.85-.28-9.7-.52-14.56-.72-10.79-.44-21.58-.76-32.38-.94-8.02-.13-16.03-.22-24.05-.22"/>
  <path class="cls-1" d="m351.47,52.16c-1.23,0-2.17-.94-2.17-2.17s.94-2.17,2.17-2.17,2.17.94,2.17,2.17-.94,2.17-2.17,2.17Zm0-3.99c-1.03,0-1.82.79-1.82,1.82s.79,1.82,1.82,1.82,1.82-.79,1.82-1.82-.79-1.82-1.82-1.82Zm.49,2.01l.49.96h-.47l-.46-.91h-.46v.91h-.4v-2.37h1.04c.42,0,.78.22.78.72,0,.37-.2.61-.5.7Zm-.28-1.02h-.62v.67h.62c.22,0,.38-.1.38-.34,0-.22-.16-.34-.38-.34Z"/>
  <polygon class="cls-2" points="172.82 90.04 140.92 147.28 125.88 147.28 157.79 90.04 148.75 90.04 116.84 147.28 97.26 147.28 129.17 90.04 124.87 90.04 92.96 147.28 0 147.28 0 149.43 139.72 149.43 155.15 149.43 159.62 149.43 192.72 90.04 172.82 90.04"/>
</svg>